<?xml version="1.0" encoding="UTF-8" standalone="yes"?>
<svg xmlns="http://www.w3.org/2000/svg" viewBox="0 0 50 50" width="50" height="50" fill="#000000">
  <path d="M 6 0 C 2.691406 0 0 2.691406 0 6 C 0 9.308594 2.691406 12 6 12 C 9.308594 12 12 9.308594 12 6 C 12 2.691406 9.308594 0 6 0 Z M 31.34375 1.96875 C 25.601563 2.070313 20.019531 4.980469 15.96875 9.03125 C 13.289063 11.707031 11.429688 14.664063 10.65625 20.5625 L 31.5 41.34375 C 36.261719 40.71875 40.019531 38.949219 42.96875 36 C 46.855469 32.113281 49.3125 27.332031 49.875 22.5 C 50.523438 16.945313 48.648438 11.773438 44.4375 7.5625 C 40.378906 3.503906 35.808594 1.890625 31.34375 1.96875 Z M 10.46875 23.15625 C 10.542969 25.371094 10.949219 27.488281 11.6875 29.40625 C 12.03125 31.148438 12.042969 33.296875 11.40625 33.9375 C 9.738281 35.605469 7.644531 37.25 5.96875 38.5625 C 4.753906 39.511719 3.714844 40.316406 3.09375 40.9375 C 2.175781 41.855469 1.808594 43.070313 2.09375 44.375 C 2.339844 45.5 3.074219 46.699219 4.1875 47.8125 C 5.636719 49.257813 7.140625 50 8.5 50 C 9.445313 50 10.300781 49.636719 11.03125 48.90625 C 11.675781 48.261719 12.507813 47.195313 13.46875 45.96875 C 14.765625 44.308594 16.40625 42.25 18.0625 40.59375 C 18.625 40.03125 20.410156 39.910156 22.46875 40.28125 C 24.433594 41.050781 26.585938 41.460938 28.84375 41.53125 Z"/>
</svg>
