<?xml version="1.0" encoding="UTF-8"?>
<svg xmlns="http://www.w3.org/2000/svg" xmlns:xlink="http://www.w3.org/1999/xlink" width="100pt" height="100pt" viewBox="0 0 100 100" version="1.1">
<g id="surface404639">
<path style=" stroke:none;fill-rule:nonzero;fill:rgb(92.54902%,25.098039%,47.843137%);fill-opacity:1;" d="M 12 0 C 5.398438 0 0 5.398438 0 12 C 0 18.601562 5.398438 24 12 24 C 18.601562 24 24 18.601562 24 12 C 24 5.398438 18.601562 0 12 0 Z M 12 4 C 16.445312 4 20 7.554688 20 12 C 20 16.445312 16.445312 20 12 20 C 7.554688 20 4 16.445312 4 12 C 4 7.554688 7.554688 4 12 4 Z M 62.8125 4 C 61.53125 4.007812 60.265625 4.101562 59 4.25 C 48.867188 5.429688 39.28125 10.726562 31.9375 18.0625 C 26.578125 23.421875 22.171875 30.164062 20.9375 45.125 C 20.9375 45.148438 20.9375 45.164062 20.9375 45.1875 C 20.914062 45.226562 20.890625 45.273438 20.875 45.3125 C 20.875 45.359375 20.875 45.390625 20.875 45.4375 C 20.875 45.5 20.875 45.5625 20.875 45.625 C 20.882812 45.773438 20.898438 45.921875 20.9375 46.0625 C 20.9375 46.125 20.9375 46.1875 20.9375 46.25 C 21.070312 50.429688 21.789062 54.625 23.3125 58.625 C 23.40625 59.078125 23.773438 61.09375 23.8125 63.1875 C 23.851562 65.28125 23.367188 67.320312 22.8125 67.875 C 20.015625 70.671875 16.5625 73.460938 13.5 75.875 C 10.453125 78.273438 7.8125 80.25 6.1875 81.875 L 6.1875 81.9375 C 4.367188 83.789062 3.65625 86.351562 4.1875 88.75 C 4.71875 91.171875 6.242188 93.492188 8.375 95.625 C 10.5 97.742188 12.703125 99.265625 15.125 99.8125 C 17.546875 100.359375 20.179688 99.695312 22.0625 97.8125 C 23.726562 96.148438 25.789062 93.492188 28.1875 90.4375 C 30.585938 87.382812 33.328125 83.984375 36.125 81.1875 C 36.671875 80.640625 38.46875 80.132812 40.4375 80.125 C 42.25 80.117188 43.882812 80.34375 44.75 80.5 C 44.773438 80.507812 44.851562 80.554688 44.875 80.5625 C 49.085938 82.21875 53.523438 82.953125 57.9375 83.0625 C 58.0625 83.0625 58.1875 83.125 58.3125 83.125 C 58.375 83.125 58.4375 83.125 58.5 83.125 C 58.59375 83.117188 58.65625 83.070312 58.75 83.0625 C 72.257812 82.25 80.46875 77.476562 85.9375 72 C 93.28125 64.65625 98.5625 55.132812 99.75 45 C 100.9375 34.867188 97.90625 24.148438 88.875 15.125 C 82.109375 8.359375 74.398438 4.96875 66.6875 4.1875 C 65.40625 4.054688 64.09375 3.992188 62.8125 4 Z M 62.8125 8 C 63.945312 7.976562 65.117188 8.015625 66.25 8.125 C 73.0625 8.789062 79.820312 11.757812 86 17.9375 C 94.242188 26.179688 96.804688 35.453125 95.75 44.5 C 94.695312 53.546875 89.914062 62.398438 83.125 69.1875 C 78.3125 74 71.367188 78.132812 59.125 79 L 25 44.875 C 26.234375 31.070312 29.820312 25.804688 34.75 20.875 C 41.539062 14.09375 50.382812 9.304688 59.4375 8.25 C 60.570312 8.117188 61.679688 8.023438 62.8125 8 Z M 25.4375 51.0625 L 53 78.5625 C 50.710938 78.179688 48.421875 77.617188 46.25 76.75 C 46.125 76.71875 46 76.695312 45.875 76.6875 C 44.976562 76.515625 42.835938 76.117188 40.4375 76.125 C 38.039062 76.132812 35.234375 76.390625 33.25 78.375 C 30.242188 81.382812 27.429688 84.851562 25 87.9375 C 22.570312 91.023438 20.492188 93.757812 19.25 95 C 18.234375 96.015625 17.398438 96.179688 16.0625 95.875 C 14.726562 95.570312 12.960938 94.578125 11.1875 92.8125 C 9.429688 91.054688 8.421875 89.289062 8.125 87.9375 C 7.828125 86.585938 8.039062 85.648438 9 84.6875 C 10.1875 83.5 12.898438 81.4375 16 79 C 19.101562 76.5625 22.609375 73.695312 25.625 70.6875 C 27.726562 68.585938 27.851562 65.632812 27.8125 63.125 C 27.773438 60.617188 27.367188 58.398438 27.25 57.8125 C 27.21875 57.703125 27.171875 57.601562 27.125 57.5 C 26.3125 55.429688 25.804688 53.25 25.4375 51.0625 Z M 25.4375 51.0625 "/>
</g>
</svg>
