<?xml version="1.0" encoding="UTF-8"?>
<svg xmlns="http://www.w3.org/2000/svg" xmlns:xlink="http://www.w3.org/1999/xlink" width="250pt" height="250pt" viewBox="0 0 250 250" version="1.1">
<g id="surface75495">
<path style=" stroke:none;fill-rule:nonzero;fill:rgb(94.117647%,93.72549%,91.764706%);fill-opacity:1;" d="M 30 0 C 13.496094 0 0 13.496094 0 30 C 0 46.503906 13.496094 60 30 60 C 46.503906 60 60 46.503906 60 30 C 60 13.496094 46.503906 0 30 0 Z M 30 10 C 41.113281 10 50 18.886719 50 30 C 50 41.113281 41.113281 50 30 50 C 18.886719 50 10 41.113281 10 30 C 10 18.886719 18.886719 10 30 10 Z M 157.03125 10 C 153.828125 10.019531 150.664062 10.253906 147.5 10.625 C 122.167969 13.574219 98.203125 26.816406 79.84375 45.15625 C 66.445312 58.554688 55.429688 75.410156 52.34375 112.8125 C 52.34375 112.871094 52.34375 112.910156 52.34375 112.96875 C 52.285156 113.066406 52.226562 113.183594 52.1875 113.28125 C 52.1875 113.398438 52.1875 113.476562 52.1875 113.59375 C 52.1875 113.75 52.1875 113.90625 52.1875 114.0625 C 52.207031 114.433594 52.246094 114.804688 52.34375 115.15625 C 52.34375 115.3125 52.34375 115.46875 52.34375 115.625 C 52.675781 126.074219 54.472656 136.5625 58.28125 146.5625 C 58.515625 147.695312 59.433594 152.734375 59.53125 157.96875 C 59.628906 163.203125 58.417969 168.300781 57.03125 169.6875 C 50.039062 176.679688 41.40625 183.652344 33.75 189.6875 C 26.132812 195.683594 19.53125 200.625 15.46875 204.6875 L 15.46875 204.84375 C 10.917969 209.472656 9.140625 215.878906 10.46875 221.875 C 11.796875 227.929688 15.605469 233.730469 20.9375 239.0625 C 26.25 244.355469 31.757812 248.164062 37.8125 249.53125 C 43.867188 250.898438 50.449219 249.238281 55.15625 244.53125 C 59.316406 240.371094 64.472656 233.730469 70.46875 226.09375 C 76.464844 218.457031 83.320312 209.960938 90.3125 202.96875 C 91.679688 201.601562 96.171875 200.332031 101.09375 200.3125 C 105.625 200.292969 109.707031 200.859375 111.875 201.25 C 111.933594 201.269531 112.128906 201.386719 112.1875 201.40625 C 122.714844 205.546875 133.808594 207.382812 144.84375 207.65625 C 145.15625 207.65625 145.46875 207.8125 145.78125 207.8125 C 145.9375 207.8125 146.09375 207.8125 146.25 207.8125 C 146.484375 207.792969 146.640625 207.675781 146.875 207.65625 C 180.644531 205.625 201.171875 193.691406 214.84375 180 C 233.203125 161.640625 246.40625 137.832031 249.375 112.5 C 252.34375 87.167969 244.765625 60.371094 222.1875 37.8125 C 205.273438 20.898438 185.996094 12.421875 166.71875 10.46875 C 163.515625 10.136719 160.234375 9.980469 157.03125 10 Z M 157.03125 20 C 159.863281 19.941406 162.792969 20.039062 165.625 20.3125 C 182.65625 21.972656 199.550781 29.394531 215 44.84375 C 235.605469 65.449219 242.011719 88.632812 239.375 111.25 C 236.738281 133.867188 224.785156 155.996094 207.8125 172.96875 C 195.78125 185 178.417969 195.332031 147.8125 197.5 L 62.5 112.1875 C 65.585938 77.675781 74.550781 64.511719 86.875 52.1875 C 103.847656 35.234375 125.957031 23.261719 148.59375 20.625 C 151.425781 20.292969 154.199219 20.058594 157.03125 20 Z M 63.59375 127.65625 L 132.5 196.40625 C 126.777344 195.449219 121.054688 194.042969 115.625 191.875 C 115.3125 191.796875 115 191.738281 114.6875 191.71875 C 112.441406 191.289062 107.089844 190.292969 101.09375 190.3125 C 95.097656 190.332031 88.085938 190.976562 83.125 195.9375 C 75.605469 203.457031 68.574219 212.128906 62.5 219.84375 C 56.425781 227.558594 51.230469 234.394531 48.125 237.5 C 45.585938 240.039062 43.496094 240.449219 40.15625 239.6875 C 36.816406 238.925781 32.402344 236.445312 27.96875 232.03125 C 23.574219 227.636719 21.054688 223.222656 20.3125 219.84375 C 19.570312 216.464844 20.097656 214.121094 22.5 211.71875 C 25.46875 208.75 32.246094 203.59375 40 197.5 C 47.753906 191.40625 56.523438 184.238281 64.0625 176.71875 C 69.316406 171.464844 69.628906 164.082031 69.53125 157.8125 C 69.433594 151.542969 68.417969 145.996094 68.125 144.53125 C 68.046875 144.257812 67.929688 144.003906 67.8125 143.75 C 65.78125 138.574219 64.511719 133.125 63.59375 127.65625 Z M 63.59375 127.65625 "/>
</g>
</svg>
